<?xml version="1.0" standalone="no"?>
<svg xmlns:xlink="http://www.w3.org/1999/xlink" id="wave" style="transform:rotate(0deg); transition: 0.3s" viewBox="0 0 1440 160" version="1.1" xmlns="http://www.w3.org/2000/svg"><defs><linearGradient id="sw-gradient-0" x1="0" x2="0" y1="1" y2="0"><stop stop-color="rgba(0, 223, 162, 1)" offset="0%"/><stop stop-color="rgba(0, 223, 162, 1)" offset="100%"/></linearGradient></defs><path style="transform:translate(0, 0px); opacity:1" fill="url(#sw-gradient-0)" d="M0,0L30,21.3C60,43,120,85,180,85.3C240,85,300,43,360,34.7C420,27,480,53,540,66.7C600,80,660,80,720,69.3C780,59,840,37,900,29.3C960,21,1020,27,1080,45.3C1140,64,1200,96,1260,93.3C1320,91,1380,53,1440,53.3C1500,53,1560,91,1620,98.7C1680,107,1740,85,1800,85.3C1860,85,1920,107,1980,109.3C2040,112,2100,96,2160,88C2220,80,2280,80,2340,66.7C2400,53,2460,27,2520,37.3C2580,48,2640,96,2700,112C2760,128,2820,112,2880,93.3C2940,75,3000,53,3060,40C3120,27,3180,21,3240,29.3C3300,37,3360,59,3420,64C3480,69,3540,59,3600,61.3C3660,64,3720,80,3780,85.3C3840,91,3900,85,3960,72C4020,59,4080,37,4140,32C4200,27,4260,37,4290,42.7L4320,48L4320,160L4290,160C4260,160,4200,160,4140,160C4080,160,4020,160,3960,160C3900,160,3840,160,3780,160C3720,160,3660,160,3600,160C3540,160,3480,160,3420,160C3360,160,3300,160,3240,160C3180,160,3120,160,3060,160C3000,160,2940,160,2880,160C2820,160,2760,160,2700,160C2640,160,2580,160,2520,160C2460,160,2400,160,2340,160C2280,160,2220,160,2160,160C2100,160,2040,160,1980,160C1920,160,1860,160,1800,160C1740,160,1680,160,1620,160C1560,160,1500,160,1440,160C1380,160,1320,160,1260,160C1200,160,1140,160,1080,160C1020,160,960,160,900,160C840,160,780,160,720,160C660,160,600,160,540,160C480,160,420,160,360,160C300,160,240,160,180,160C120,160,60,160,30,160L0,160Z"/></svg>